<?xml version="1.0" encoding="iso-8859-1"?>
<!-- Uploaded to: SVG Repo, www.svgrepo.com, Generator: SVG Repo Mixer Tools -->
<svg xmlns="http://www.w3.org/2000/svg" xmlns:xlink="http://www.w3.org/1999/xlink" version="1.1" id="Layer_1"  viewBox="0 0 462.6 462.6" xml:space="preserve" width="512" height="512">
<g>
	<path style="fill:#3EBD9E;" d="M186.098,417.2c21.928-27.485,38.721-57.655,49.912-89.67c3.653-10.478,2.086-21.655-4.303-30.661   c-6.421-9.047-16.771-14.449-27.686-14.449c-2.752,0-5.529,0.337-8.254,1.002c-4.853,1.184-9.55,2.501-13.964,3.916l-0.145,0.045   c-26.532,7.953-53.737,21.86-91.762,43.194l-25.341,14.217l14.493-25.185c15.422-26.799,23.574-57.336,23.574-88.31   c0-30.971-8.152-61.511-23.574-88.32l-14.464-25.144l25.308,14.174c36.647,20.525,64.766,34.829,91.677,42.702l0.132,0.04   c4.754,1.481,9.627,2.805,14.485,3.937c2.571,0.598,5.194,0.901,7.796,0.901c10.81,0,21.079-5.391,27.47-14.421   c6.43-9.074,7.993-20.307,4.293-30.824c-11.281-32.04-27.896-61.91-49.381-88.779l10.402-11.833   c109.44,66.491,171.745,141.789,204.741,193.248l2.769,4.318l-2.769,4.318c-33.028,51.513-95.405,126.883-205.003,193.411   L186.098,417.2z"/>
	<g>
		<circle cx="331.111" cy="219.621" r="8"/>
		<path d="M411.021,227.05c-26.73-42.67-61.28-83.22-102.68-120.53c-44.59-40.17-96.26-75.71-153.56-105.61    c-3.56-1.86-7.95-0.79-10.26,2.5c-2.3,3.3-1.8,7.79,1.16,10.5c38.31,34.97,66.07,76.38,82.52,123.09    c2.82,8.03,1.63,16.61-3.28,23.55c-4.9,6.91-12.72,11.04-20.94,11.04c-1.98,0-15.44-3.08-19.96-4.49    c-0.05-0.02-0.09-0.03-0.14-0.04c-33.85-9.89-70.64-30.85-121.57-59.87c-3.4-1.93-7.69-1.13-10.16,1.9    c-2.47,3.04-2.38,7.41,0.2,10.34c56.23,63.78,56.23,159.96,0,223.74c-2.58,2.93-2.67,7.3-0.2,10.34c2.46,3.03,6.76,3.84,10.16,1.9    l1.1-0.63c52.76-30.03,87.62-49.87,120.61-59.76c0.05-0.01,0.1-0.02,0.14-0.04c4.38-1.4,17.75-4.56,19.86-4.56    c8.32,0,16.24,4.15,21.17,11.09c4.87,6.86,6.06,15.38,3.26,23.38c-16.41,46.99-44.26,88.65-82.77,123.8    c-2.96,2.71-3.46,7.21-1.16,10.5c1.55,2.2,4.02,3.41,6.56,3.41c1.26,0,2.52-0.29,3.7-0.91c57.3-29.9,108.97-65.43,153.56-105.61    c41.4-37.31,75.95-77.86,102.68-120.53C412.651,232.95,412.651,229.65,411.021,227.05z M192.351,422.19    c22.33-27.99,39.72-59.15,51.21-92.02c4.52-12.96,2.58-26.78-5.33-37.93c-7.92-11.16-20.71-17.82-34.21-17.82    c-3.38,0-6.79,0.41-10.15,1.23c-4.92,1.2-9.8,2.56-14.51,4.07c-27.69,8.3-55.86,22.83-93.38,43.88    c16.05-27.89,24.64-59.67,24.64-92.3c0-32.63-8.59-64.41-24.64-92.31c36.28,20.32,65.38,35.22,93.34,43.4    c4.88,1.52,9.94,2.9,15.05,4.09c3.18,0.74,6.41,1.11,9.61,1.11c13.4,0,26.11-6.65,34-17.8c7.95-11.22,9.88-25.11,5.31-38.1    c-11.63-33.03-28.61-63.52-50.68-91.12c106.18,64.51,167.83,137.19,202.16,190.73C360.411,284.89,298.691,357.64,192.351,422.19z"/>
		<path d="M308.158,177.396c4.064-1.733,5.954-6.433,4.221-10.497c-1.732-4.063-6.432-5.956-10.496-4.221    c-27.548,11.747-45.348,38.683-45.348,68.623s17.8,56.876,45.348,68.623c1.023,0.437,2.087,0.643,3.134,0.643    c3.109,0,6.066-1.823,7.362-4.864c1.733-4.064-0.156-8.764-4.221-10.497c-21.64-9.228-35.623-30.387-35.623-53.905    S286.519,186.624,308.158,177.396z"/>
	</g>
</g>















</svg>